<svg version="1.1" id="Layer_1" xmlns="http://www.w3.org/2000/svg" xmlns:xlink="http://www.w3.org/1999/xlink" x="0px" y="0px"
	 width="100%" viewBox="0 0 612 408" enable-background="new 0 0 612 408" xml:space="preserve">
<path fill="#000000" opacity="1.000000" stroke="none" 
	d="
M572.000000,409.000000 
	C381.379913,409.000000 191.259811,409.000000 1.069862,409.000000 
	C1.069862,273.079926 1.069862,137.159775 1.069862,1.119825 
	C204.999954,1.119825 408.999969,1.119825 612.997375,1.115082 
	C612.994751,137.073563 612.994751,273.036774 612.992188,409.000000 
	C599.493042,409.000000 585.996521,409.000000 572.000000,409.000000 
M482.962769,220.908356 
	C482.962769,220.908356 483.000885,220.810638 483.504608,220.830490 
	C483.672607,220.827728 483.840637,220.824982 484.034882,220.911545 
	C484.034882,220.911545 484.126495,220.928040 484.243805,221.210297 
	C484.243805,221.210297 484.630188,221.304413 484.630188,221.304413 
	C484.630188,221.304413 484.901306,220.957809 485.487274,220.354980 
	C485.654480,214.712158 485.859528,209.070129 485.978821,203.426300 
	C486.113586,197.049774 488.018066,194.571838 494.171509,193.927597 
	C498.978973,193.424286 497.923370,190.022842 497.814514,187.229202 
	C497.678986,183.751999 494.852478,183.804901 492.657349,184.466080 
	C490.123230,185.229370 487.835022,186.809006 485.320679,188.095230 
	C485.106598,187.248825 484.946014,186.613907 484.692291,185.611282 
	C484.543762,185.369141 484.328064,185.261475 483.378296,185.165222 
	C482.934448,185.081024 482.490601,184.996811 481.545074,184.329910 
	C479.749451,184.281601 477.953857,184.233276 475.234314,184.168930 
	C475.127441,196.039230 475.010681,207.909515 474.965546,219.780045 
	C474.964294,220.107635 475.732239,220.438156 476.824677,220.775940 
	C477.276917,220.826736 477.729187,220.877548 478.276154,221.193253 
	C478.276154,221.193253 478.632141,221.275467 478.632141,221.275467 
	C478.632141,221.275467 478.868622,220.948822 479.678772,220.898590 
	C480.489746,220.918198 481.300751,220.937820 482.242706,221.226700 
	C482.242706,221.226700 482.625641,221.292831 482.625641,221.292831 
	C482.625641,221.292831 482.860718,220.932510 482.962769,220.908356 
M440.001221,204.000610 
	C440.001221,204.000610 439.990051,203.985855 439.585999,204.183609 
	C439.315002,204.371872 439.187317,204.630798 438.931488,205.560699 
	C438.596130,206.363358 438.260773,207.166031 437.414673,208.571289 
	C436.638916,212.448257 436.426788,216.184540 440.259583,219.399231 
	C440.469025,219.664017 440.731049,219.857620 441.442566,220.511612 
	C442.294525,220.689178 443.146484,220.866745 444.006042,220.990524 
	C444.006042,220.990524 443.956787,221.013367 444.191833,221.385635 
	C444.383240,221.635574 444.636200,221.767181 445.859528,221.887115 
	C453.227936,221.555511 460.596313,221.223907 468.710693,220.472107 
	C468.817657,213.324890 469.005310,206.177368 468.979950,199.030624 
	C468.972778,197.011292 468.342651,194.994156 467.950256,192.248428 
	C466.079865,184.305237 456.407104,183.006393 447.887085,184.853638 
	C445.094421,185.459122 441.965240,187.484436 440.396332,189.809464 
	C439.169800,191.627014 440.116364,194.910950 440.097351,197.543320 
	C442.844879,196.987625 445.691345,196.706497 448.300293,195.766220 
	C449.710510,195.257950 450.843048,192.582275 451.876465,192.709366 
	C454.196075,192.994629 457.411469,193.822128 458.385712,195.511200 
	C460.146301,198.563522 456.715729,198.657150 454.802887,199.062439 
	C452.226135,199.608414 449.582520,199.839096 446.555054,200.323853 
	C446.303986,200.488098 446.136261,200.714188 445.514099,201.072433 
	C445.334747,201.095291 445.155365,201.118149 444.187897,201.014420 
	C443.142975,201.684464 442.098022,202.354523 441.005524,202.995377 
	C441.005524,202.995377 441.009827,203.051010 440.564423,203.235870 
	C440.287720,203.423508 440.094666,203.675308 440.001221,204.000610 
M147.761307,220.611526 
	C147.875015,214.217377 148.076523,207.822815 148.046387,201.429337 
	C148.037872,199.625381 147.351089,197.824615 146.985519,195.218246 
	C145.521942,192.267654 144.803528,188.302612 142.445114,186.570221 
	C136.936081,182.523499 130.618683,184.117538 123.935966,186.900909 
	C123.935966,182.044556 123.848167,177.791153 123.964729,173.543365 
	C124.052429,170.346954 122.639008,168.958588 119.499863,169.137161 
	C118.013229,169.221741 116.521118,169.210083 114.339684,169.698029 
	C114.253929,186.159866 114.159546,202.621674 114.120140,219.083618 
	C114.118828,219.631226 114.674438,220.180176 115.542946,220.906784 
	C116.355148,220.920929 117.199844,220.793930 117.974281,220.972153 
	C122.970947,222.122040 124.421638,219.975113 124.050201,215.189331 
	C123.690598,210.555908 123.842575,205.865433 124.037033,201.211166 
	C124.238785,196.382294 127.939415,192.800903 132.182434,192.962296 
	C136.084793,193.110733 137.917068,195.676132 138.001923,201.189056 
	C138.098221,207.446213 138.161987,213.703842 138.215347,220.496185 
	C138.798660,220.632568 139.381958,220.768951 140.801987,220.843903 
	C141.919632,220.877274 143.037277,220.910645 144.261276,221.195511 
	C144.261276,221.195511 144.609955,221.262695 144.609955,221.262695 
	C144.609955,221.262695 144.821259,220.935440 145.431503,220.797501 
	C145.633057,220.743973 145.834625,220.690445 146.169449,220.913742 
	C146.169449,220.913742 146.553833,221.126389 146.553833,221.126389 
	C146.553833,221.126389 146.967560,220.989334 147.761307,220.611526 
M276.390900,221.199661 
	C277.582642,221.111572 278.774353,221.023483 280.778473,220.867401 
	C281.863983,220.820663 282.949463,220.773926 284.431244,220.662872 
	C284.686584,220.520203 284.828491,220.303299 284.986847,219.081192 
	C284.943298,208.068008 284.899780,197.054810 284.536804,185.506271 
	C283.734009,185.442841 282.931244,185.379425 281.261353,185.189636 
	C279.511932,185.220825 277.762543,185.251999 275.363617,185.772919 
	C275.266205,196.940414 275.155426,208.107880 275.111664,219.275574 
	C275.109528,219.822708 275.694092,220.372131 276.390900,221.199661 
M371.058563,223.885391 
	C371.470734,230.384857 375.308685,231.590195 381.086273,231.086792 
	C387.002441,230.571304 392.997040,230.955978 399.795502,230.700836 
	C399.795502,227.942535 399.795502,225.184235 399.795502,222.085144 
	C390.951324,222.085144 382.235748,222.058990 373.520966,222.129517 
	C372.733459,222.135910 371.951019,222.765396 371.058563,223.885391 
M298.292297,185.096558 
	C296.581360,185.092148 294.870422,185.087738 292.802155,184.369522 
	C292.535889,185.037033 292.040680,185.703506 292.037659,186.372208 
	C291.989410,197.066940 291.983307,207.762070 292.047363,218.456635 
	C292.052032,219.235153 292.669830,220.010010 293.612854,221.179428 
	C301.984131,222.358627 302.942596,221.597137 302.956818,213.814163 
	C302.965637,208.987305 302.814392,204.150238 303.079346,199.336700 
	C303.316193,195.032623 306.210907,192.623978 310.394836,193.025543 
	C314.341644,193.404312 316.153381,195.864441 316.155853,199.751450 
	C316.157349,202.081772 316.165527,204.412109 316.166321,206.742432 
	C316.168030,211.658005 316.166840,216.573578 316.166840,221.493149 
	C319.829315,221.225845 322.396851,221.038452 325.799957,220.592087 
	C325.870728,212.876190 325.995422,205.160065 325.964569,197.444565 
	C325.958740,195.983521 325.335541,194.524933 324.935883,192.345505 
	C320.869293,184.856750 314.243988,182.448578 305.496429,184.892838 
	C303.831573,185.358047 301.805817,184.531570 299.565826,184.383621 
	C299.332611,184.533401 299.192566,184.744904 298.292297,185.096558 
M365.370056,185.273193 
	C359.246735,184.926468 353.123383,184.339828 347.000061,184.339478 
	C344.158844,184.339310 341.178375,185.123291 338.501984,186.168686 
	C329.858429,189.544800 328.162842,209.300781 335.551575,216.954987 
	C340.439056,222.018036 348.497620,222.822769 356.816956,218.604004 
	C357.015472,225.019897 355.473541,227.106979 349.561157,226.992310 
	C346.635406,226.935577 343.766785,225.221222 340.811707,224.970016 
	C338.548981,224.777679 335.286102,224.915268 334.074219,226.305862 
	C331.910004,228.789200 333.101074,231.834778 336.258026,233.108734 
	C339.988861,234.614197 343.844666,236.092850 347.784607,236.736588 
	C355.339264,237.970932 364.624725,231.685165 366.706451,224.521286 
	C366.785980,212.095139 366.877045,199.669037 366.908173,187.242783 
	C366.909607,186.668900 366.373779,186.093674 365.370056,185.273193 
M202.940079,229.466629 
	C202.940079,226.678665 202.940079,223.890686 202.940079,220.705109 
	C204.535370,221.148819 205.444916,221.545761 206.384995,221.640839 
	C215.080139,222.520187 222.049011,222.055817 226.317245,214.412231 
	C230.687683,206.585632 230.209503,199.067764 225.973495,191.451462 
	C223.916199,187.752426 221.079193,185.100052 216.722748,185.055466 
	C209.231918,184.978790 201.737701,185.217575 194.245544,185.358582 
	C193.993988,185.363312 193.749466,185.742188 193.501663,185.946671 
	C193.081024,185.944199 192.660370,185.941727 192.239716,185.939255 
	C192.239716,195.174133 192.213501,204.409103 192.249069,213.643829 
	C192.272049,219.608154 192.758835,225.600143 192.314102,231.525436 
	C192.060226,234.907501 192.817505,236.115448 196.077820,235.974518 
	C198.172638,235.883972 200.274536,235.957520 202.647995,235.957520 
	C202.770493,233.641342 202.856598,232.013733 202.940079,229.466629 
M269.959045,203.476639 
	C269.957367,202.144135 270.041595,200.805038 269.939697,199.480240 
	C269.405182,192.531219 264.685394,184.772964 257.579468,184.500137 
	C250.544357,184.230057 243.459045,184.859650 236.426849,185.459274 
	C235.587769,185.530823 234.319321,187.884399 234.305283,189.191559 
	C234.151306,203.514755 234.293610,217.841095 234.148148,232.164474 
	C234.109451,235.976547 236.317032,235.937592 238.989609,235.988373 
	C241.775299,236.041260 243.997101,235.768158 243.883331,232.126434 
	C243.765091,228.340485 243.856979,224.547974 243.856979,220.608307 
	C262.800323,225.080521 269.049194,218.441208 269.959045,203.476639 
M174.875626,221.782455 
	C178.264267,220.004120 182.859482,219.071091 184.810806,216.285797 
	C190.233444,208.545547 190.401581,199.742004 185.822159,191.413544 
	C182.784027,185.888214 177.138077,184.527298 171.179764,184.145966 
	C166.449493,183.843231 161.939331,183.887665 158.122421,187.313263 
	C151.454391,193.297653 151.489471,200.788239 152.985016,208.745392 
	C154.697830,217.858505 159.820206,222.139114 169.020493,221.882660 
	C170.681198,221.836349 172.344498,221.883698 174.875626,221.782455 
M88.059547,205.499771 
	C91.088036,206.351730 94.162155,207.075027 97.120651,208.124313 
	C98.178917,208.499680 99.542862,209.559525 99.708206,210.494278 
	C99.893135,211.539810 98.948143,213.756302 98.369453,213.799927 
	C95.673996,214.003204 91.459007,214.667648 90.481674,213.275604 
	C87.222572,208.633575 83.442085,210.187149 79.550224,210.590851 
	C78.673691,215.448257 80.649162,220.052826 84.362221,220.703491 
	C89.187767,221.549164 94.177361,222.207657 99.036652,221.924057 
	C105.241829,221.561874 109.833824,216.466873 109.894119,211.127869 
	C109.959297,205.355042 105.731438,201.068283 99.021706,200.022354 
	C97.555267,199.793762 95.930275,199.672531 94.718391,198.939560 
	C93.011230,197.907013 91.465630,196.473526 90.226883,194.913055 
	C89.978798,194.600540 91.428802,192.072800 92.074295,192.081970 
	C93.955582,192.108704 95.838890,192.860779 97.690880,193.428146 
	C98.116409,193.558517 98.395714,194.357132 98.782898,194.391510 
	C101.870445,194.665817 104.967781,194.830124 108.062111,195.028137 
	C106.848877,192.048492 105.649109,189.063141 104.392311,186.101974 
	C104.307983,185.903290 103.750008,185.952164 103.483604,185.777313 
	C98.571091,182.552597 93.237778,183.941483 88.095772,184.633560 
	C83.526550,185.248535 80.313560,189.840256 80.143639,194.989090 
	C79.975235,200.091599 82.551590,203.741043 88.059547,205.499771 
M410.198181,198.039902 
	C415.567749,191.158569 417.486755,191.308746 423.846497,197.068100 
	C425.390869,198.466690 429.211487,197.681290 431.868744,197.223221 
	C432.357513,197.138931 433.104919,193.298203 432.340271,192.033142 
	C426.323059,182.077957 411.693359,182.275711 404.892487,187.680618 
	C399.093414,192.289368 397.759735,205.218170 401.038025,212.891159 
	C404.759796,221.602127 419.429474,226.050812 426.917419,220.400620 
	C430.081665,218.012970 434.248932,215.085251 432.923126,209.741272 
	C428.269226,208.295975 424.335052,207.425644 420.824066,212.219070 
	C418.623505,215.223450 413.719452,213.778519 411.261932,210.057083 
	C408.950165,206.556366 407.938263,202.837280 410.198181,198.039902 
M516.380737,221.935150 
	C518.832886,221.849731 522.001404,222.357742 521.760315,218.633118 
	C521.638977,216.759293 520.049194,213.462143 519.023987,213.423141 
	C514.086792,213.235199 513.858887,210.251892 513.926392,206.660522 
	C513.985718,203.503311 514.036743,200.341110 513.925659,197.186966 
	C513.827454,194.399048 514.585999,192.701630 517.803528,192.921463 
	C521.191101,193.152908 521.877625,191.034500 521.948181,188.127716 
	C522.096313,182.029968 517.247192,184.743713 514.536682,183.891876 
	C512.798035,174.033524 512.479309,173.802643 503.313751,175.697693 
	C502.485199,179.237762 504.544067,183.689941 499.703217,186.189545 
	C498.901489,186.603500 499.263794,192.010300 500.029572,192.263550 
	C504.079803,193.603119 502.911194,196.666809 503.024994,199.256058 
	C503.178101,202.740112 503.007812,206.237000 503.081177,209.726181 
	C503.274506,218.920593 506.351807,221.921036 516.380737,221.935150 
M276.293518,179.718018 
	C277.915894,179.785004 280.098724,180.541626 281.043091,179.774246 
	C282.962585,178.214432 285.431152,175.841431 285.448242,173.785080 
	C285.472717,170.841400 282.927155,167.845978 279.419189,169.149994 
	C277.321136,169.929932 275.574371,172.497772 274.444672,174.665787 
	C273.920441,175.671921 275.243439,177.640564 276.293518,179.718018 
z"/>
<path fill="#20416C" opacity="1.000000" stroke="none" 
	d="
M365.958893,224.958008 
	C364.624725,231.685165 355.339264,237.970932 347.784607,236.736588 
	C343.844666,236.092850 339.988861,234.614197 336.258026,233.108734 
	C333.101074,231.834778 331.910004,228.789200 334.074219,226.305862 
	C335.286102,224.915268 338.548981,224.777679 340.811707,224.970016 
	C343.766785,225.221222 346.635406,226.935577 349.561157,226.992310 
	C355.473541,227.106979 357.015472,225.019897 356.816956,218.604004 
	C348.497620,222.822769 340.439056,222.018036 335.551575,216.954987 
	C328.162842,209.300781 329.858429,189.544800 338.501984,186.168686 
	C341.178375,185.123291 344.158844,184.339310 347.000061,184.339478 
	C353.123383,184.339828 359.246735,184.926468 365.697937,185.897095 
	C366.003540,199.333328 365.981232,212.145660 365.958893,224.958008 
M346.230774,193.331467 
	C341.728333,195.237076 341.131561,199.534943 341.271576,203.339294 
	C341.416687,207.283081 343.126678,211.684723 347.626251,212.402878 
	C350.080811,212.794632 354.613190,211.362335 355.251770,209.650009 
	C356.660217,205.873260 357.255768,201.097244 356.179108,197.296631 
	C355.211365,193.880402 351.061707,192.385315 346.230774,193.331467 
z"/>
<path fill="#20416C" opacity="1.000000" stroke="none" 
	d="
M202.941376,229.926361 
	C202.856598,232.013733 202.770493,233.641342 202.647995,235.957520 
	C200.274536,235.957520 198.172638,235.883972 196.077820,235.974518 
	C192.817505,236.115448 192.060226,234.907501 192.314102,231.525436 
	C192.758835,225.600143 192.272049,219.608154 192.249069,213.643829 
	C192.213501,204.409103 192.239716,195.174133 192.239716,185.939255 
	C192.660370,185.941727 193.081024,185.944199 193.501663,185.946671 
	C193.749466,185.742188 193.993988,185.363312 194.245544,185.358582 
	C201.737701,185.217575 209.231918,184.978790 216.722748,185.055466 
	C221.079193,185.100052 223.916199,187.752426 225.973495,191.451462 
	C230.209503,199.067764 230.687683,206.585632 226.317245,214.412231 
	C222.049011,222.055817 215.080139,222.520187 206.384995,221.640839 
	C205.444916,221.545761 204.535370,221.148819 202.940079,220.705109 
	C202.940079,223.890686 202.940079,226.678665 202.941376,229.926361 
M213.682083,193.339996 
	C209.447617,192.379654 205.275162,192.592300 203.989700,197.434982 
	C203.055344,200.955017 202.762115,205.095703 203.741486,208.513031 
	C204.381897,210.747650 207.711288,213.444138 210.014359,213.621552 
	C212.297882,213.797440 215.561188,211.616241 217.063431,209.516373 
	C220.720734,204.404205 219.548721,199.423172 213.682083,193.339996 
z"/>
<path fill="#1F406B" opacity="1.000000" stroke="none" 
	d="
M269.959747,203.929199 
	C269.049194,218.441208 262.800323,225.080521 243.856979,220.608307 
	C243.856979,224.547974 243.765091,228.340485 243.883331,232.126434 
	C243.997101,235.768158 241.775299,236.041260 238.989609,235.988373 
	C236.317032,235.937592 234.109451,235.976547 234.148148,232.164474 
	C234.293610,217.841095 234.151306,203.514755 234.305283,189.191559 
	C234.319321,187.884399 235.587769,185.530823 236.426849,185.459274 
	C243.459045,184.859650 250.544357,184.230057 257.579468,184.500137 
	C264.685394,184.772964 269.405182,192.531219 269.939697,199.480240 
	C270.041595,200.805038 269.957367,202.144135 269.959747,203.929199 
M256.928375,195.565796 
	C252.854645,191.883743 246.408112,192.013092 245.382324,196.196899 
	C244.411621,200.156036 244.820602,204.504883 244.963852,208.670609 
	C245.096100,212.517105 248.500107,213.469803 251.254913,213.616714 
	C253.087479,213.714447 255.521408,212.142532 256.832611,210.594803 
	C260.643158,206.096893 260.267853,201.093491 256.928375,195.565796 
z"/>
<path fill="#22426D" opacity="1.000000" stroke="none" 
	d="
M174.441116,221.835144 
	C172.344498,221.883698 170.681198,221.836349 169.020493,221.882660 
	C159.820206,222.139114 154.697830,217.858505 152.985016,208.745392 
	C151.489471,200.788239 151.454391,193.297653 158.122421,187.313263 
	C161.939331,183.887665 166.449493,183.843231 171.179764,184.145966 
	C177.138077,184.527298 182.784027,185.888214 185.822159,191.413544 
	C190.401581,199.742004 190.233444,208.545547 184.810806,216.285797 
	C182.859482,219.071091 178.264267,220.004120 174.441116,221.835144 
M178.125214,203.452866 
	C176.743988,200.310043 176.033188,196.526352 173.803864,194.194260 
	C171.283615,191.557861 167.501968,192.609512 164.805756,194.985321 
	C161.822922,197.613678 161.011200,204.539215 162.861633,208.333038 
	C164.648743,211.997040 167.299118,213.966690 171.574005,212.970688 
	C176.179977,211.897537 177.859528,208.644135 178.125214,203.452866 
z"/>
<path fill="#1E416D" opacity="1.000000" stroke="none" 
	d="
M138.239914,219.961273 
	C138.161987,213.703842 138.098221,207.446213 138.001923,201.189056 
	C137.917068,195.676132 136.084793,193.110733 132.182434,192.962296 
	C127.939415,192.800903 124.238785,196.382294 124.037033,201.211166 
	C123.842575,205.865433 123.690598,210.555908 124.050201,215.189331 
	C124.421638,219.975113 122.970947,222.122040 117.974281,220.972153 
	C117.199844,220.793930 116.355148,220.920929 115.248459,220.367828 
	C114.979820,202.966583 115.005653,186.104294 115.031494,169.242020 
	C116.521118,169.210083 118.013229,169.221741 119.499863,169.137161 
	C122.639008,168.958588 124.052429,170.346954 123.964729,173.543365 
	C123.848167,177.791153 123.935966,182.044556 123.935966,186.900909 
	C130.618683,184.117538 136.936081,182.523499 142.445114,186.570221 
	C144.803528,188.302612 145.521942,192.267654 146.951813,195.859390 
	C146.918091,196.500534 146.838837,196.975677 146.688934,197.359894 
	C146.371429,205.375046 146.203812,213.005981 146.036194,220.636917 
	C145.834625,220.690445 145.633057,220.743973 144.959869,220.861969 
	C144.488235,220.926437 144.154922,220.944016 144.154922,220.944000 
	C143.037277,220.910645 141.919632,220.877274 140.184769,220.728180 
	C139.125000,220.395401 138.682465,220.178329 138.239914,219.961273 
z"/>
<path fill="#20416C" opacity="1.000000" stroke="none" 
	d="
M467.964722,220.892303 
	C460.596313,221.223907 453.227936,221.555511 445.251465,221.691650 
	C444.432892,221.309158 444.204010,221.148224 443.956787,221.013367 
	C443.956787,221.013367 444.006042,220.990524 443.728943,220.857010 
	C442.649780,220.475677 441.847748,220.227859 441.045685,219.980057 
	C440.731049,219.857620 440.469025,219.664017 440.112549,218.776245 
	C439.285492,214.758408 438.605438,211.363556 437.925385,207.968689 
	C438.260773,207.166031 438.596130,206.363358 439.210480,205.108459 
	C439.678650,204.449432 439.845520,204.225983 439.990051,203.985855 
	C439.990051,203.985855 440.001221,204.000610 440.179077,203.855957 
	C440.595062,203.511520 440.812714,203.291412 441.009827,203.051010 
	C441.009827,203.051010 441.005524,202.995377 441.334869,202.934387 
	C442.768127,202.295929 443.872070,201.718460 444.976013,201.140991 
	C445.155365,201.118149 445.334747,201.095291 445.948364,200.919891 
	C446.592285,200.595184 446.787292,200.407761 446.967621,200.205109 
	C449.582520,199.839096 452.226135,199.608414 454.802887,199.062439 
	C456.715729,198.657150 460.146301,198.563522 458.385712,195.511200 
	C457.411469,193.822128 454.196075,192.994629 451.876465,192.709366 
	C450.843048,192.582275 449.710510,195.257950 448.300293,195.766220 
	C445.691345,196.706497 442.844879,196.987625 440.097351,197.543320 
	C440.116364,194.910950 439.169800,191.627014 440.396332,189.809464 
	C441.965240,187.484436 445.094421,185.459122 447.887085,184.853638 
	C456.407104,183.006393 466.079865,184.305237 467.973267,193.082489 
	C467.985748,202.908463 467.975250,211.900391 467.964722,220.892303 
M455.683685,213.224945 
	C458.820312,211.407944 459.947968,208.922760 458.318237,205.302719 
	C456.320465,205.695969 454.280426,205.769577 452.538605,206.527985 
	C450.601105,207.371582 448.763000,208.665924 447.268524,210.152924 
	C446.880402,210.539078 447.752167,213.260742 448.361603,213.387405 
	C450.520996,213.836151 452.817261,213.626160 455.683685,213.224945 
z"/>
<path fill="#1F406B" opacity="1.000000" stroke="none" 
	d="
M299.946564,184.301056 
	C301.805817,184.531570 303.831573,185.358047 305.496429,184.892838 
	C314.243988,182.448578 320.869293,184.856750 324.970795,193.169724 
	C324.991913,202.946320 324.978149,211.898682 324.964386,220.851074 
	C322.396851,221.038452 319.829315,221.225845 316.166840,221.493149 
	C316.166840,216.573578 316.168030,211.658005 316.166321,206.742432 
	C316.165527,204.412109 316.157349,202.081772 316.155853,199.751450 
	C316.153381,195.864441 314.341644,193.404312 310.394836,193.025543 
	C306.210907,192.623978 303.316193,195.032623 303.079346,199.336700 
	C302.814392,204.150238 302.965637,208.987305 302.956818,213.814163 
	C302.942596,221.597137 301.984131,222.358627 293.294464,220.602234 
	C293.037903,219.006912 293.099731,217.988785 293.297913,216.607300 
	C293.342957,213.170090 293.251617,210.096237 293.090271,206.574524 
	C293.066956,203.410904 293.113647,200.695145 293.294586,197.614288 
	C293.336395,194.177383 293.243958,191.105530 293.081818,187.665878 
	C293.061249,186.559814 293.110352,185.821579 293.159485,185.083344 
	C294.870422,185.087738 296.581360,185.092148 298.861481,184.948730 
	C299.615021,184.647064 299.786987,184.480453 299.946564,184.301056 
z"/>
<path fill="#20416C" opacity="1.000000" stroke="none" 
	d="
M87.698311,205.339249 
	C82.551590,203.741043 79.975235,200.091599 80.143639,194.989090 
	C80.313560,189.840256 83.526550,185.248535 88.095772,184.633560 
	C93.237778,183.941483 98.571091,182.552597 103.483604,185.777313 
	C103.750008,185.952164 104.307983,185.903290 104.392311,186.101974 
	C105.649109,189.063141 106.848877,192.048492 108.062111,195.028137 
	C104.967781,194.830124 101.870445,194.665817 98.782898,194.391510 
	C98.395714,194.357132 98.116409,193.558517 97.690880,193.428146 
	C95.838890,192.860779 93.955582,192.108704 92.074295,192.081970 
	C91.428802,192.072800 89.978798,194.600540 90.226883,194.913055 
	C91.465630,196.473526 93.011230,197.907013 94.718391,198.939560 
	C95.930275,199.672531 97.555267,199.793762 99.021706,200.022354 
	C105.731438,201.068283 109.959297,205.355042 109.894119,211.127869 
	C109.833824,216.466873 105.241829,221.561874 99.036652,221.924057 
	C94.177361,222.207657 89.187767,221.549164 84.362221,220.703491 
	C80.649162,220.052826 78.673691,215.448257 79.550224,210.590851 
	C83.442085,210.187149 87.222572,208.633575 90.481674,213.275604 
	C91.459007,214.667648 95.673996,214.003204 98.369453,213.799927 
	C98.948143,213.756302 99.893135,211.539810 99.708206,210.494278 
	C99.542862,209.559525 98.178917,208.499680 97.120651,208.124313 
	C94.162155,207.075027 91.088036,206.351730 87.698311,205.339249 
z"/>
<path fill="#22426D" opacity="1.000000" stroke="none" 
	d="
M410.093811,198.424255 
	C407.938263,202.837280 408.950165,206.556366 411.261932,210.057083 
	C413.719452,213.778519 418.623505,215.223450 420.824066,212.219070 
	C424.335052,207.425644 428.269226,208.295975 432.923126,209.741272 
	C434.248932,215.085251 430.081665,218.012970 426.917419,220.400620 
	C419.429474,226.050812 404.759796,221.602127 401.038025,212.891159 
	C397.759735,205.218170 399.093414,192.289368 404.892487,187.680618 
	C411.693359,182.275711 426.323059,182.077957 432.340271,192.033142 
	C433.104919,193.298203 432.357513,197.138931 431.868744,197.223221 
	C429.211487,197.681290 425.390869,198.466690 423.846497,197.068100 
	C417.486755,191.308746 415.567749,191.158569 410.093811,198.424255 
z"/>
<path fill="#1F406B" opacity="1.000000" stroke="none" 
	d="
M515.939941,221.935989 
	C506.351807,221.921036 503.274506,218.920593 503.081177,209.726181 
	C503.007812,206.237000 503.178101,202.740112 503.024994,199.256058 
	C502.911194,196.666809 504.079803,193.603119 500.029572,192.263550 
	C499.263794,192.010300 498.901489,186.603500 499.703217,186.189545 
	C504.544067,183.689941 502.485199,179.237762 503.313751,175.697693 
	C512.479309,173.802643 512.798035,174.033524 514.536682,183.891876 
	C517.247192,184.743713 522.096313,182.029968 521.948181,188.127716 
	C521.877625,191.034500 521.191101,193.152908 517.803528,192.921463 
	C514.585999,192.701630 513.827454,194.399048 513.925659,197.186966 
	C514.036743,200.341110 513.985718,203.503311 513.926392,206.660522 
	C513.858887,210.251892 514.086792,213.235199 519.023987,213.423141 
	C520.049194,213.462143 521.638977,216.759293 521.760315,218.633118 
	C522.001404,222.357742 518.832886,221.849731 515.939941,221.935989 
z"/>
<path fill="#1E416D" opacity="1.000000" stroke="none" 
	d="
M478.181427,220.928345 
	C477.729187,220.877548 477.276917,220.826736 476.468872,220.486328 
	C476.159454,219.816452 476.205841,219.436157 476.385437,218.664200 
	C476.683502,209.985306 477.041840,201.695511 476.931732,193.411957 
	C476.876617,189.269196 477.876740,186.269272 482.046753,184.912613 
	C482.490601,184.996811 482.934448,185.081024 483.824829,185.351898 
	C484.431061,185.698975 484.602417,185.845779 484.785431,185.978989 
	C484.946014,186.613907 485.106598,187.248825 485.320679,188.095230 
	C487.835022,186.809006 490.123230,185.229370 492.657349,184.466080 
	C494.852478,183.804901 497.678986,183.751999 497.814514,187.229202 
	C497.923370,190.022842 498.978973,193.424286 494.171509,193.927597 
	C488.018066,194.571838 486.113586,197.049774 485.978821,203.426300 
	C485.859528,209.070129 485.654480,214.712158 485.000854,220.643173 
	C484.514465,220.931366 484.126495,220.928040 484.126495,220.928040 
	C484.126495,220.928040 484.034882,220.911545 483.899719,220.820526 
	C483.501770,220.672516 483.247223,220.699554 483.000885,220.810638 
	C483.000885,220.810638 482.962769,220.908356 482.724426,220.921051 
	C482.486084,220.933731 482.111725,220.957428 482.111725,220.957428 
	C481.300751,220.937820 480.489746,220.918198 479.102173,220.912292 
	C478.525604,220.926010 478.181427,220.928345 478.181427,220.928345 
z"/>
<path fill="#1E416D" opacity="1.000000" stroke="none" 
	d="
M284.856262,186.041626 
	C284.899780,197.054810 284.943298,208.068008 284.775635,219.655060 
	C284.373718,220.379883 284.197235,220.545975 284.034973,220.727173 
	C282.949463,220.773926 281.863983,220.820663 280.090332,220.676956 
	C278.602356,218.097595 277.258759,215.744110 277.100403,213.313385 
	C276.530182,204.560898 276.359680,195.782364 276.031189,186.725189 
	C276.020538,186.052185 276.016815,185.667679 276.013123,185.283173 
	C277.762543,185.251999 279.511932,185.220825 281.952271,185.367249 
	C283.380890,185.710434 284.118561,185.876022 284.856262,186.041626 
z"/>
<path fill="#22426D" opacity="1.000000" stroke="none" 
	d="
M276.011230,179.445435 
	C275.243439,177.640564 273.920441,175.671921 274.444672,174.665787 
	C275.574371,172.497772 277.321136,169.929932 279.419189,169.149994 
	C282.927155,167.845978 285.472717,170.841400 285.448242,173.785080 
	C285.431152,175.841431 282.962585,178.214432 281.043091,179.774246 
	C280.098724,180.541626 277.915894,179.785004 276.011230,179.445435 
z"/>
<path fill="#1D395E" opacity="1.000000" stroke="none" 
	d="
M398.957306,230.946640 
	C392.997040,230.955978 387.002441,230.571304 381.086273,231.086792 
	C375.308685,231.590195 371.470734,230.384857 371.562744,223.417023 
	C380.942352,222.948669 389.817719,222.948669 398.957306,222.948669 
	C398.957306,226.033218 398.957306,228.489929 398.957306,230.946640 
M377.231110,224.133942 
	C376.397308,225.100937 375.563507,226.067932 374.729675,227.034927 
	C375.658264,227.601654 376.559937,228.602661 377.519989,228.662170 
	C382.452667,228.967926 387.407837,229.232452 392.337982,229.049454 
	C393.698395,228.998962 394.999969,227.362961 396.328522,226.454453 
	C395.046173,225.659531 393.799683,224.256958 392.475006,224.178772 
	C387.688904,223.896149 382.876556,224.059006 377.231110,224.133942 
z"/>
<path fill="#4E6483" opacity="1.000000" stroke="none" 
	d="
M114.685593,169.470032 
	C115.005653,186.104294 114.979820,202.966583 114.962219,220.278687 
	C114.674438,220.180176 114.118828,219.631226 114.120140,219.083618 
	C114.159546,202.621674 114.253929,186.159866 114.685593,169.470032 
z"/>
<path fill="#1D395E" opacity="1.000000" stroke="none" 
	d="
M481.795898,184.621262 
	C477.876740,186.269272 476.876617,189.269196 476.931732,193.411957 
	C477.041840,201.695511 476.683502,209.985306 476.342285,218.190079 
	C476.163361,206.800079 476.160797,195.492523 476.158234,184.184967 
	C477.953857,184.233276 479.749451,184.281601 481.795898,184.621262 
z"/>
<path fill="#1D395E" opacity="1.000000" stroke="none" 
	d="
M276.038208,187.013672 
	C276.359680,195.782364 276.530182,204.560898 277.100403,213.313385 
	C277.258759,215.744110 278.602356,218.097595 279.684143,220.710953 
	C278.774353,221.023483 277.582642,221.111572 276.195435,220.597351 
	C276.012695,209.001251 276.025452,198.007462 276.038208,187.013672 
z"/>
<path fill="#4E6483" opacity="1.000000" stroke="none" 
	d="
M366.332672,224.739655 
	C365.981232,212.145660 366.003540,199.333328 366.057007,186.020020 
	C366.373779,186.093674 366.909607,186.668900 366.908173,187.242783 
	C366.877045,199.669037 366.785980,212.095139 366.332672,224.739655 
z"/>
<path fill="#ACBDCC" opacity="1.000000" stroke="none" 
	d="
M475.696289,184.176941 
	C476.160797,195.492523 476.163361,206.800079 476.209076,218.581757 
	C476.205841,219.436157 476.159454,219.816452 476.127258,220.482025 
	C475.732239,220.438156 474.964294,220.107635 474.965546,219.780045 
	C475.010681,207.909515 475.127441,196.039230 475.696289,184.176941 
z"/>
<path fill="#ACBDCC" opacity="1.000000" stroke="none" 
	d="
M292.980835,184.726425 
	C293.110352,185.821579 293.061249,186.559814 293.022034,188.113602 
	C293.074707,191.945877 293.117523,194.962631 293.160339,197.979370 
	C293.113647,200.695145 293.066956,203.410904 293.029663,207.023422 
	C293.079895,210.936996 293.120728,213.953812 293.161560,216.970642 
	C293.099731,217.988785 293.037903,219.006912 292.989319,220.405807 
	C292.669830,220.010010 292.052032,219.235153 292.047363,218.456635 
	C291.983307,207.762070 291.989410,197.066940 292.037659,186.372208 
	C292.040680,185.703506 292.535889,185.037033 292.980835,184.726425 
z"/>
<path fill="#ACBDCC" opacity="1.000000" stroke="none" 
	d="
M399.376404,230.823730 
	C398.957306,228.489929 398.957306,226.033218 398.957306,222.948669 
	C389.817719,222.948669 380.942352,222.948669 371.616577,223.027100 
	C371.951019,222.765396 372.733459,222.135910 373.520966,222.129517 
	C382.235748,222.058990 390.951324,222.085144 399.795502,222.085144 
	C399.795502,225.184235 399.795502,227.942535 399.376404,230.823730 
z"/>
<path fill="#22426D" opacity="1.000000" stroke="none" 
	d="
M276.031219,186.725189 
	C276.025452,198.007462 276.012695,209.001251 276.002716,220.457764 
	C275.694092,220.372131 275.109528,219.822708 275.111664,219.275574 
	C275.155426,208.107880 275.266205,196.940414 275.688354,185.528046 
	C276.016815,185.667679 276.020538,186.052185 276.031219,186.725189 
z"/>
<path fill="#4E6483" opacity="1.000000" stroke="none" 
	d="
M468.337708,220.682205 
	C467.975250,211.900391 467.985748,202.908463 467.997253,193.446274 
	C468.342651,194.994156 468.972778,197.011292 468.979950,199.030624 
	C469.005310,206.177368 468.817657,213.324890 468.337708,220.682205 
z"/>
<path fill="#ACBDCC" opacity="1.000000" stroke="none" 
	d="
M325.382172,220.721573 
	C324.978149,211.898682 324.991913,202.946320 325.001465,193.529572 
	C325.335541,194.524933 325.958740,195.983521 325.964569,197.444565 
	C325.995422,205.160065 325.870728,212.876190 325.382172,220.721573 
z"/>
<path fill="#1D395E" opacity="1.000000" stroke="none" 
	d="
M146.102814,220.775330 
	C146.203812,213.005981 146.371429,205.375046 146.702728,197.832458 
	C146.900131,205.610321 146.933853,213.299835 146.967560,220.989334 
	C146.967560,220.989334 146.553833,221.126389 146.553833,221.126389 
	C146.553833,221.126389 146.169449,220.913742 146.102814,220.775330 
z"/>
<path fill="#4E6483" opacity="1.000000" stroke="none" 
	d="
M147.364441,220.800430 
	C146.933853,213.299835 146.900131,205.610321 146.852631,197.448242 
	C146.838837,196.975677 146.918091,196.500534 146.946747,196.261459 
	C147.351089,197.824615 148.037872,199.625381 148.046387,201.429337 
	C148.076523,207.822815 147.875015,214.217377 147.364441,220.800430 
z"/>
<path fill="#1D395E" opacity="1.000000" stroke="none" 
	d="
M437.670013,208.269989 
	C438.605438,211.363556 439.285492,214.758408 439.988220,218.563293 
	C436.426788,216.184540 436.638916,212.448257 437.670013,208.269989 
z"/>
<path fill="#1D395E" opacity="1.000000" stroke="none" 
	d="
M444.581970,201.077698 
	C443.872070,201.718460 442.768127,202.295929 441.358643,202.948975 
	C442.098022,202.354523 443.142975,201.684464 444.581970,201.077698 
z"/>
<path fill="#1D395E" opacity="1.000000" stroke="none" 
	d="
M138.227631,220.228729 
	C138.682465,220.178329 139.125000,220.395401 139.766418,220.758911 
	C139.381958,220.768951 138.798660,220.632568 138.227631,220.228729 
z"/>
<path fill="#1D395E" opacity="1.000000" stroke="none" 
	d="
M284.696533,185.773956 
	C284.118561,185.876022 283.380890,185.710434 282.385834,185.430420 
	C282.931244,185.379425 283.734009,185.442841 284.696533,185.773956 
z"/>
<path fill="#1D395E" opacity="1.000000" stroke="none" 
	d="
M441.244141,220.245834 
	C441.847748,220.227859 442.649780,220.475677 443.725159,220.883911 
	C443.146484,220.866745 442.294525,220.689178 441.244141,220.245834 
z"/>
<path fill="#1D395E" opacity="1.000000" stroke="none" 
	d="
M284.233093,220.695038 
	C284.197235,220.545975 284.373718,220.379883 284.710724,220.120529 
	C284.828491,220.303299 284.686584,220.520203 284.233093,220.695038 
z"/>
<path fill="#1D395E" opacity="1.000000" stroke="none" 
	d="
M439.788025,204.084732 
	C439.845520,204.225983 439.678650,204.449432 439.346222,204.808304 
	C439.187317,204.630798 439.315002,204.371872 439.788025,204.084732 
z"/>
<path fill="#1D395E" opacity="1.000000" stroke="none" 
	d="
M483.252747,220.820557 
	C483.247223,220.699554 483.501770,220.672516 483.886597,220.775879 
	C483.840637,220.824982 483.672607,220.827728 483.252747,220.820557 
z"/>
<path fill="#1D395E" opacity="1.000000" stroke="none" 
	d="
M144.208099,221.069763 
	C144.154922,220.944016 144.488235,220.926437 144.654755,220.930939 
	C144.821259,220.935440 144.609955,221.262695 144.609955,221.262695 
	C144.609955,221.262695 144.261276,221.195511 144.208099,221.069763 
z"/>
<path fill="#1D395E" opacity="1.000000" stroke="none" 
	d="
M444.074310,221.199493 
	C444.204010,221.148224 444.432892,221.309158 444.797058,221.638306 
	C444.636200,221.767181 444.383240,221.635574 444.074310,221.199493 
z"/>
<path fill="#1D395E" opacity="1.000000" stroke="none" 
	d="
M478.228790,221.060791 
	C478.181427,220.928345 478.525604,220.926010 478.697113,220.937408 
	C478.868622,220.948822 478.632141,221.275467 478.632141,221.275467 
	C478.632141,221.275467 478.276154,221.193253 478.228790,221.060791 
z"/>
<path fill="#1D395E" opacity="1.000000" stroke="none" 
	d="
M482.177216,221.092072 
	C482.111725,220.957428 482.486084,220.933731 482.673401,220.933121 
	C482.860718,220.932510 482.625641,221.292831 482.625641,221.292831 
	C482.625641,221.292831 482.242706,221.226700 482.177216,221.092072 
z"/>
<path fill="#1D395E" opacity="1.000000" stroke="none" 
	d="
M484.185150,221.069168 
	C484.126495,220.928040 484.514465,220.931366 484.707886,220.944580 
	C484.901306,220.957809 484.630188,221.304413 484.630188,221.304413 
	C484.630188,221.304413 484.243805,221.210297 484.185150,221.069168 
z"/>
<path fill="#1D395E" opacity="1.000000" stroke="none" 
	d="
M440.787109,203.143433 
	C440.812714,203.291412 440.595062,203.511520 440.171082,203.851288 
	C440.094666,203.675308 440.287720,203.423508 440.787109,203.143433 
z"/>
<path fill="#1D395E" opacity="1.000000" stroke="none" 
	d="
M446.761353,200.264465 
	C446.787292,200.407761 446.592285,200.595184 446.217285,200.884750 
	C446.136261,200.714188 446.303986,200.488098 446.761353,200.264465 
z"/>
<path fill="#1D395E" opacity="1.000000" stroke="none" 
	d="
M299.756195,184.342346 
	C299.786987,184.480453 299.615021,184.647064 299.288208,184.909515 
	C299.192566,184.744904 299.332611,184.533401 299.756195,184.342346 
z"/>
<path fill="#1D395E" opacity="1.000000" stroke="none" 
	d="
M484.738861,185.795135 
	C484.602417,185.845779 484.431061,185.698975 484.158295,185.413422 
	C484.328064,185.261475 484.543762,185.369141 484.738861,185.795135 
z"/>
<path fill="#000000" opacity="1.000000" stroke="none" 
	d="
M346.613708,193.201889 
	C351.061707,192.385315 355.211365,193.880402 356.179108,197.296631 
	C357.255768,201.097244 356.660217,205.873260 355.251770,209.650009 
	C354.613190,211.362335 350.080811,212.794632 347.626251,212.402878 
	C343.126678,211.684723 341.416687,207.283081 341.271576,203.339294 
	C341.131561,199.534943 341.728333,195.237076 346.613708,193.201889 
z"/>
<path fill="#000000" opacity="1.000000" stroke="none" 
	d="
M214.014709,193.563660 
	C219.548721,199.423172 220.720734,204.404205 217.063431,209.516373 
	C215.561188,211.616241 212.297882,213.797440 210.014359,213.621552 
	C207.711288,213.444138 204.381897,210.747650 203.741486,208.513031 
	C202.762115,205.095703 203.055344,200.955017 203.989700,197.434982 
	C205.275162,192.592300 209.447617,192.379654 214.014709,193.563660 
z"/>
<path fill="#000000" opacity="1.000000" stroke="none" 
	d="
M257.200165,195.850708 
	C260.267853,201.093491 260.643158,206.096893 256.832611,210.594803 
	C255.521408,212.142532 253.087479,213.714447 251.254913,213.616714 
	C248.500107,213.469803 245.096100,212.517105 244.963852,208.670609 
	C244.820602,204.504883 244.411621,200.156036 245.382324,196.196899 
	C246.408112,192.013092 252.854645,191.883743 257.200165,195.850708 
z"/>
<path fill="#000000" opacity="1.000000" stroke="none" 
	d="
M178.128204,203.880463 
	C177.859528,208.644135 176.179977,211.897537 171.574005,212.970688 
	C167.299118,213.966690 164.648743,211.997040 162.861633,208.333038 
	C161.011200,204.539215 161.822922,197.613678 164.805756,194.985321 
	C167.501968,192.609512 171.283615,191.557861 173.803864,194.194260 
	C176.033188,196.526352 176.743988,200.310043 178.128204,203.880463 
z"/>
<path fill="#000000" opacity="1.000000" stroke="none" 
	d="
M455.372681,213.445374 
	C452.817261,213.626160 450.520996,213.836151 448.361603,213.387405 
	C447.752167,213.260742 446.880402,210.539078 447.268524,210.152924 
	C448.763000,208.665924 450.601105,207.371582 452.538605,206.527985 
	C454.280426,205.769577 456.320465,205.695969 458.318237,205.302719 
	C459.947968,208.922760 458.820312,211.407944 455.372681,213.445374 
z"/>
<path fill="#1D395E" opacity="1.000000" stroke="none" 
	d="
M293.297913,216.607300 
	C293.120728,213.953812 293.079895,210.936996 293.099670,207.471283 
	C293.251617,210.096237 293.342957,213.170090 293.297913,216.607300 
z"/>
<path fill="#1D395E" opacity="1.000000" stroke="none" 
	d="
M293.294586,197.614288 
	C293.117523,194.962631 293.074707,191.945877 293.091736,188.481415 
	C293.243958,191.105530 293.336395,194.177383 293.294586,197.614288 
z"/>
<path fill="#1E416D" opacity="1.000000" stroke="none" 
	d="
M377.652588,224.093811 
	C382.876556,224.059006 387.688904,223.896149 392.475006,224.178772 
	C393.799683,224.256958 395.046173,225.659531 396.328522,226.454453 
	C394.999969,227.362961 393.698395,228.998962 392.337982,229.049454 
	C387.407837,229.232452 382.452667,228.967926 377.519989,228.662170 
	C376.559937,228.602661 375.658264,227.601654 374.729675,227.034927 
	C375.563507,226.067932 376.397308,225.100937 377.652588,224.093811 
z"/>
</svg>